# AST/ASF file generated using VICON BodyLanguage
# -----------------------------------------------
:version 1.10
:name VICON
:units
  mass 1.0
  length 0.45
  angle deg
:documentation
   .ast/.asf automatically generated from VICON data using
   VICON BodyBuilder and BodyLanguage model FoxedUp or BRILLIANT.MOD
:root
   order TX TY TZ RX RY RZ
   axis XYZ
   position 0 0 0  
   orientation 0 0 0 
:bonedata
  begin
     id 1 
     name lhipjoint
     direction 0.661853 -0.702389 0.261917 
     length 2.64193 
     axis 0 0 0  XYZ
  end
  begin
     id 2 
     name lfemur
     direction 0.34202 -0.939693 0  
     length 7.01722  
     axis 0 0 20  XYZ
    dof rx ry rz
    limits (-160.0 20.0)
           (-70.0 70.0)
           (-60.0 70.0)
  end
  begin
     id 3 
     name ltibia
     direction 0.34202 -0.939693 0   
     length 8.25008   
     axis 0 0 20   XYZ
    dof rx
    limits (-10.0 170.0)
  end
  begin
     id 4 
     name lfoot
     direction 0.0709916 -0.195048 0.978221   
     length 2.31941   
     axis -90 7.62852e-016 20   XYZ
    dof rx rz
    limits (-45.0 90.0)
           (-70.0 20.0)
  end
  begin
     id 5 
     name ltoes
     direction 1.53586e-011 -4.22017e-011 1   
     length 1.16486   
     axis -90 7.62852e-016 20   XYZ
    dof rx
    limits (-90.0 20.0)
  end
  begin
     id 6 
     name rhipjoint
     direction -0.638185 -0.721362 0.268992   
     length 2.57244  
     axis 0 0 0  XYZ 
  end
  begin
     id 7 
     name rfemur
     direction -0.34202 -0.939693 0   
     length 7.07017   
     axis 0 0 -20   XYZ
    dof rx ry rz
    limits (-160.0 20.0)
           (-70.0 70.0)
           (-70.0 60.0)
  end
  begin
     id 8 
     name rtibia
     direction -0.34202 -0.939693 0   
     length 8.20386   
     axis 0 0 -20   XYZ
    dof rx
    limits (-10.0 170.0)
 end
 begin
     id 9 
     name rfoot
     direction -0.0822429 -0.225961 0.970658   
     length 2.32215  
     axis -90 -7.62852e-016 -20   XYZ
    dof rx rz
    limits (-45.0 90.0)
           (-20.0 70.0)
  end
  begin
     id 10 
     name rtoes
     direction -1.53597e-011 -4.21689e-011 1   
     length 1.16333   
     axis -90 -7.62852e-016 -20   XYZ
    dof rx
    limits (-90.0 20.0)
  end
  begin
     id 11 
     name lowerback
     direction -0.0131557 0.998589 -0.0514484   
     length 2.14993   
     axis 0 0 0   XYZ
    dof rx ry rz
    limits (-20.0 45.0)
           (-30.0 30.0)
           (-30.0 30.0)
  end
  begin
     id 12 
     name upperback
     direction -0.000776481 0.999993 0.00352685   
     length 2.15301   
     axis 0 0 0   XYZ
    dof rx ry rz
    limits (-20.0 45.0)
           (-30.0 30.0)
           (-30.0 30.0)
  end
  begin
     id 13 
     name thorax
     direction 0.00438186 0.999609 0.0276143   
     length 2.15424   
     axis 0 0 0   XYZ
    dof rx ry rz
    limits (-20.0 45.0)
           (-30.0 30.0)
           (-30.0 30.0)
  end
  begin
     id 14 
     name lowerneck
     direction -0.0488006 0.998094 0.0377807   
     length 1.90481   
     axis 0 0 0   XYZ
    dof rx ry rz
    limits (-20.0 45.0)
           (-30.0 30.0)
           (-30.0 30.0)
  end
  begin
     id 15 
     name upperneck
     direction 0.0443769 0.990702 -0.12861   
     length 1.91305   
     axis 0 0 0   XYZ
    dof rx ry rz
    limits (-20.0 45.0)
           (-30.0 30.0)
           (-30.0 30.0)
  end
  begin
     id 16
     name head
     direction 0.0165599 0.998647 -0.0492982  
     length 1.92369  
     axis 0 0 0   XYZ
    dof rx ry rz
    limits (-20.0 45.0)
           (-30.0 30.0)
           (-30.0 30.0)
  end
  begin
     id 17 
     name lclavicle
     direction 0.911936 0.410197 -0.0105506  
     length 3.52622  
     axis 0 0 0   XYZ
    dof ry rz
    limits (-20.0 10.0)
           (0.0 20.0)
  end
  begin
     id 18 
     name lhumerus
     direction 1 -4.48974e-011 -2.48591e-028   
     length 5.47651   
     axis 180 -30 -90   XYZ
    dof rx ry rz
    limits (-60.0 90.0)
           (-90.0 90.0)
           (-90.0 90.0)
  end
  begin
     id 19
     name lradius
     direction 1 -4.48938e-011 -4.40099e-027   
     length 3.09058   
     axis 180 -30 -90   XYZ
    dof rx
    limits (-10.0 170.0)
  end
  begin
     id 20
     name lwrist
     direction 1 -4.49042e-011 -2.99852e-027   
     length 1.54529   
     axis 1.95339e-015 90 90   XYZ
    dof ry
    limits (-180.0 0.0)
 end
  begin
     id 21 
     name lhand
     direction 1 -4.48815e-011 -5.98193e-027   
     length 0.771611   
     axis 3.82337e-015 90 90   XYZ
    dof rx rz
    limits (-90.0 90.0)
           (-45.0 45.0)
  end
  begin
     id 22 
     name lfingers
     direction 1 -4.49034e-011 -1.1993e-026   
     length 0.622093   
     axis 7.64668e-015 90 90   XYZ
    dof rx
    limits (0.0 90.0)
  end
  begin
     id 23
     name lthumb
     direction 0.707107 -6.34867e-011 0.707107   
     length 0.893204   
     axis -90 45 -1.62303e-014   XYZ
    dof rx rz
    limits (-45.0 45.0)
           (-45.0 45.0)
  end
  begin
     id 24 
     name rclavicle
     direction -0.93442 0.355634 -0.0195692   
     length 3.62463  
     axis 0 0 0   XYZ 
    dof ry rz
    limits (-10.0 20.0)
           (-20.0 0.0)
  end
  begin
     id 25 
     name rhumerus
     direction -1 -4.48957e-011 -1.19147e-027  
     length 5.14182   
     axis 180 30 90   XYZ
    dof rx ry rz
    limits (-90.0 60.0)
           (-90.0 90.0)
           (-90.0 90.0)
  end
  begin
     id 26 
     name rradius
     direction -1 -4.48952e-011 -3.81062e-027   
     length 3.35565   
     axis 180 30 90   XYZ
    dof rx
    limits (-10.0 170.0)
  end
  begin
     id 27 
     name rwrist
     direction -1 -4.48973e-011 -2.99621e-027   
     length 1.67782   
     axis 1.95339e-015 -90 -90   XYZ
    dof ry
    limits (-180.0 0.0)
  end
  begin
     id 28
     name rhand
     direction -1 -4.48895e-011 -5.98727e-027   
     length 0.801042   
     axis 3.82337e-015 -90 -90   XYZ
    dof rx rz
    limits (-90.0 90.0)
           (-45.0 45.0)
  end
  begin
     id 29
     name rfingers
     direction -1 -4.49065e-011 -1.19972e-026   
     length 0.645821   
     axis 7.64668e-015 -90 -90   XYZ
    dof rx
    limits (0.0 90.0)
  end
  begin
     id 30
     name rthumb
     direction -0.707107 -6.34957e-011 0.707107   
     length 0.927273   
     axis -90 -45 1.62303e-014   XYZ
    dof rx rz
    limits (-45.0 45.0)
           (-45.0 45.0)
  end
:hierarchy
  begin
    root lhipjoint rhipjoint lowerback
    lhipjoint lfemur
    lfemur ltibia
    ltibia lfoot
    lfoot ltoes
    rhipjoint rfemur
    rfemur rtibia
    rtibia rfoot
    rfoot rtoes
    lowerback upperback
    upperback thorax
    thorax lowerneck lclavicle rclavicle
    lowerneck upperneck
    upperneck head
    lclavicle lhumerus
    lhumerus lradius
    lradius lwrist
    lwrist lhand lthumb
    lhand lfingers
    rclavicle rhumerus
    rhumerus rradius
    rradius rwrist
    rwrist rhand rthumb
    rhand rfingers
  end

#!OML:ASF E:\Style4\Style4.ASF
:FULLY-SPECIFIED
:DEGREES
354
root -0.0375126 16.4687 -2.27913 11.087 -1.41517 3.10051
lowerback 13.9647 1.60923 -3.09083
upperback 2.86987 1.63478 -0.655289
thorax -4.86053 0.839505 0.764498
lowerneck 4.65533 -4.0052 -7.1793
upperneck 0.984264 -5.66678 5.16837
head -0.117984 -2.89189 2.97216
rclavicle -6.26172e-015 -9.93923e-016
rhumerus -34.1291 24.3855 -83.2813
rradius 85.1911
rwrist 4.5097
rhand -35.8858 29.336
rfingers 7.12502
rthumb -8.99963 -0.452066
lclavicle -6.26172e-015 -9.93923e-016
lhumerus -37.6032 -28.2731 84.5484
lradius 89.4792
lwrist -8.74011
lhand -28.1364 21.9194
lfingers 7.12502
lthumb -1.51763 51.8938
rfemur -42.6704 0.0323147 14.8298
rtibia 61.6979
rfoot -27.2788 -15.3896
rtoes -13.2741
lfemur -40.8747 -0.571997 -22.4741
ltibia 59.5966
lfoot -28.2335 7.74216
ltoes -15.4092
355
root -0.0370136 16.4756 -2.28191 11.11 -1.39749 3.13617
lowerback 13.9145 1.60215 -3.09475
upperback 2.87215 1.62668 -0.66198
thorax -4.83027 0.835277 0.762403
lowerneck 4.53652 -3.99787 -7.18543
upperneck 1.13191 -5.6526 5.16862
head -0.0510334 -2.8846 2.96726
rclavicle -1.16289e-014 5.56597e-015
rhumerus -33.9944 24.4624 -83.2142
rradius 85.1898
rwrist 4.49536
rhand -35.8786 29.2601
rfingers 7.12502
rthumb -8.9927 -0.528212
lclavicle -1.16289e-014 5.56597e-015
lhumerus -37.4186 -28.4492 84.5292
lradius 89.3707
lwrist -9.16611
lhand -28.089 22.0502
lfingers 7.12502
lthumb -1.47189 52.0249
rfemur -42.6412 -0.00281261 14.7849
rtibia 61.5798
rfoot -27.2885 -15.2408
rtoes -12.9389
lfemur -40.8467 -0.602742 -22.5072
ltibia 59.4822
lfoot -28.1742 7.72651
ltoes -15.3487
356
root -0.0385825 16.4836 -2.28499 11.1519 -1.33178 3.12814
lowerback 13.879 1.63182 -3.00267
upperback 2.87914 1.68101 -0.656371
thorax -4.80317 0.860499 0.707621
lowerneck 4.41738 -4.03687 -7.25059
upperneck 1.19711 -5.70132 5.22592
head -0.00254792 -2.90877 2.99425
rclavicle -1.49089e-014 4.96962e-015
rhumerus -33.847 24.4147 -83.0704
rradius 85.2158
rwrist 4.51716
rhand -35.795 29.055
rfingers 7.12502
rthumb -8.91199 -0.736833
lclavicle -1.49089e-014 4.96962e-015
lhumerus -37.1 -28.8471 84.5519
lradius 89.2221
lwrist -9.47803
lhand -28.1625 22.1368
lfingers 7.12502
lthumb -1.5429 52.111
rfemur -42.6214 -0.0491432 14.81
rtibia 61.4533
rfoot -27.2654 -15.2156
rtoes -12.889
lfemur -40.8501 -0.639508 -22.48
ltibia 59.3647
lfoot -28.1055 7.79374
ltoes -15.5349
357
root -0.0402271 16.4941 -2.28761 11.1099 -1.24053 3.05695
lowerback 13.9283 1.63321 -2.86676
upperback 2.90207 1.70223 -0.634054
thorax -4.80362 0.869077 0.649827
lowerneck 4.42487 -4.06907 -7.20581
upperneck 1.11493 -5.7409 5.18747
head -0.0298445 -2.92758 2.97451
rclavicle 1.98785e-015 4.77083e-015
rhumerus -33.7407 24.4049 -82.9914
rradius 85.2528
rwrist 4.61981
rhand -35.7292 29.1049
rfingers 7.12502
rthumb -8.84849 -0.689616
lclavicle 1.98785e-015 4.77083e-015
lhumerus -36.7235 -29.1558 84.5109
lradius 89.0548
lwrist -9.74874
lhand -28.3176 22.2007
lfingers 7.12502
lthumb -1.69263 52.1737
rfemur -42.472 -0.0816935 14.9059
rtibia 61.3036
rfoot -27.187 -15.3276
rtoes -13.193
lfemur -40.7593 -0.696768 -22.3801
ltibia 59.2539
lfoot -28.0458 7.82479
ltoes -15.8187
358
root -0.0418311 16.5 -2.29472 11.0511 -1.10423 3.01603
lowerback 14.0472 1.59753 -2.78164
upperback 2.90243 1.66523 -0.597662
thorax -4.8657 0.850527 0.643819
lowerneck 4.44046 -4.08711 -7.18954
upperneck 1.08317 -5.76446 5.13007
head -0.0433132 -2.93877 2.95308
rclavicle 1.49089e-015 5.96354e-016
rhumerus -33.6378 24.4896 -82.9661
rradius 85.2435
rwrist 4.71657
rhand -35.6758 29.1941
rfingers 7.12502
rthumb -8.79697 -0.602561
lclavicle 1.49089e-015 5.96354e-016
lhumerus -36.4049 -29.382 84.497
lradius 88.9261
lwrist -10.0853
lhand -28.4135 22.4687
lfingers 7.12502
lthumb -1.78528 52.4409
rfemur -42.3262 -0.145976 14.9655
rtibia 61.1688
rfoot -27.0879 -15.428
rtoes -13.3163
lfemur -40.6743 -0.802025 -22.3126
ltibia 59.1502
lfoot -27.9333 7.70671
ltoes -15.3868
359
root -0.0429235 16.5028 -2.30222 11.0603 -1.00534 3.01387
lowerback 14.0997 1.57861 -2.7415
upperback 2.87872 1.64495 -0.579135
thorax -4.91824 0.840814 0.642675
lowerneck 4.38664 -4.08522 -7.24067
upperneck 1.16968 -5.76254 5.15481
head -0.00423029 -2.93823 2.96788
rclavicle 7.05686e-015 -5.56597e-015
rhumerus -33.525 24.5705 -82.9386
rradius 85.23
rwrist 4.82522
rhand -35.727 29.2131
rfingers 7.12502
rthumb -8.8464 -0.581509
lclavicle 7.05686e-015 -5.56597e-015
lhumerus -36.0851 -29.7006 84.4901
lradius 88.8262
lwrist -10.4813
lhand -28.2948 22.7226
lfingers 7.12502
lthumb -1.6706 52.6958
rfemur -42.2943 -0.2257 14.9866
rtibia 61.042
rfoot -26.9806 -15.4707
rtoes -13.453
lfemur -40.6706 -0.856858 -22.2955
ltibia 59.0389
lfoot -27.7816 7.60991
ltoes -15.1554
360
root -0.041638 16.5117 -2.30291 11.0286 -1.03478 3.03582
lowerback 14.1008 1.58242 -2.76103
upperback 2.88112 1.64667 -0.58677
thorax -4.91665 0.841839 0.645353
lowerneck 4.36654 -4.06938 -7.2345
upperneck 1.19587 -5.74037 5.14236
head 0.00553101 -2.92702 2.96147
rclavicle 2.28602e-015 -1.0138e-014
rhumerus -33.3303 24.7169 -82.9264
rradius 85.1869
rwrist 5.1474
rhand -35.6845 29.1838
rfingers 7.12502
rthumb -8.8054 -0.612547
lclavicle 2.28602e-015 -1.0138e-014
lhumerus -35.754 -30.0117 84.4399
lradius 88.7261
lwrist -10.8287
lhand -28.1902 22.8787
lfingers 7.12502
lthumb -1.56964 52.8527
rfemur -42.196 -0.215503 14.9505
rtibia 60.8975
rfoot -26.901 -15.4368
rtoes -13.5681
lfemur -40.5509 -0.834574 -22.3273
ltibia 58.8886
lfoot -27.7332 7.57847
ltoes -15.0653
361
root -0.0380558 16.5246 -2.30022 10.9708 -1.1196 3.08973
lowerback 14.0686 1.58453 -2.82227
upperback 2.89036 1.6397 -0.624539
thorax -4.88957 0.838726 0.642399
lowerneck 4.45496 -4.02686 -7.12346
upperneck 1.11088 -5.68262 5.10302
head -0.0453086 -2.89784 2.93151
rclavicle -3.49861e-014 1.47101e-014
rhumerus -33.163 24.9241 -82.9681
rradius 85.1599
rwrist 5.48785
rhand -35.5995 29.2729
rfingers 7.12502
rthumb -8.7233 -0.52687
lclavicle -3.49861e-014 1.47101e-014
lhumerus -35.4805 -30.2532 84.3488
lradius 88.6863
lwrist -11.2104
lhand -28.2273 22.9239
lfingers 7.12502
lthumb -1.60544 52.8976
rfemur -42.0511 -0.216937 14.8654
rtibia 60.7308
rfoot -26.8192 -15.3471
rtoes -13.4997
lfemur -40.3543 -0.779869 -22.4166
ltibia 58.7053
lfoot -27.7204 7.66195
ltoes -15.4071
362
root -0.0368847 16.5374 -2.29896 10.9556 -1.17994 3.14227
lowerback 14.0067 1.58372 -2.94205
upperback 2.89698 1.62438 -0.611807
thorax -4.85179 0.832453 0.727669
lowerneck 4.46149 -3.98512 -7.09175
upperneck 1.09243 -5.62561 5.05297
head -0.0585535 -2.86881 2.90912
rclavicle -1.73937e-014 7.55382e-015
rhumerus -33.0133 25.2139 -82.9679
rradius 85.1595
rwrist 5.68805
rhand -35.6081 29.3951
rfingers 7.12502
rthumb -8.7316 -0.404283
lclavicle -1.73937e-014 7.55382e-015
lhumerus -35.0992 -30.466 84.2736
lradius 88.6002
lwrist -11.7015
lhand -28.1787 22.876
lfingers 7.12502
lthumb -1.55852 52.8501
rfemur -41.9484 -0.216829 14.7906
rtibia 60.5592
rfoot -26.7711 -15.2453
rtoes -13.2228
lfemur -40.2241 -0.740057 -22.4872
ltibia 58.5182
lfoot -27.6965 7.72717
ltoes -15.6428
